<svg xmlns="http://www.w3.org/2000/svg" aria-hidden="true" style="width:0;height:0;position:absolute;overflow:hidden"><defs><symbol id="icon-twitter" viewBox="0 0 24 24" fill="none"><path d="M23 3a10.9 10.9 0 0 1-3.14 1.53 4.48 4.48 0 0 0-7.86 3v1A10.66 10.66 0 0 1 3 4s-4 9 5 13a11.64 11.64 0 0 1-7 2c9 5 20 0 20-11.5 0-.279-.028-.556-.08-.83A7.72 7.72 0 0 0 23 3Z"/></symbol><symbol id="icon-instagram" viewBox="0 0 24 24" fill="none"><path d="M17 2H7a5 5 0 0 0-5 5v10a5 5 0 0 0 5 5h10a5 5 0 0 0 5-5V7a5 5 0 0 0-5-5Z"/><path d="M16 11.37a4 4 0 1 1-7.914 1.173A4 4 0 0 1 16 11.37Z"/><path d="M16 11.37a4 4 0 1 1-7.914 1.173A4 4 0 0 1 16 11.37ZM17.5 6.5h.01M17.5 6.5h.01"/></symbol><symbol id="icon-chocolate" viewBox="0 0 31 32"><path fill="#fcf1e0" style="fill:var(--color1,#fcf1e0)" d="M3.765 19.89 14.052 3.258l.611-.643 7.862 5.242.054 3.163 1.919 3.13-8.476 13.437-12.256-7.696z"/><path fill="none" stroke="#fd9222" style="stroke:var(--color2,#fd9222)" stroke-linejoin="round" stroke-linecap="round" stroke-width="2.618" d="M20.651 23.521 7.11 15.06m3.734-6.125 13.541 8.461m-14.238 8.02L21.349 7.041m4.592 7.803c-2.902-1.813-4.041-3.23-2.174-6.293l-9.188-5.742L3.377 21.184l13.541 8.461 9.024-14.802z"/></symbol><symbol id="icon-Line-4" viewBox="0 0 10720 32"><path stroke-linejoin="round" stroke-linecap="round" stroke-width="2.618" d="M20.651 23.521 7.11 15.06m3.734-6.125 13.541 8.461m-14.238 8.02L21.349 7.041m4.592 7.803c-2.902-1.813-4.041-3.23-2.174-6.293l-9.188-5.742L3.377 21.184l13.541 8.461 9.024-14.802z"/></symbol><symbol id="icon-fi-rr-angle-small-left" viewBox="0 0 32 32"><path d="M16.947 17.867a1.334 1.334 0 0 1-1.894 0l-6.107-6.12a1.334 1.334 0 1 0-1.894 1.88l6.12 6.12a4.001 4.001 0 0 0 5.654 0l6.12-6.12a1.337 1.337 0 0 0-.434-2.172 1.331 1.331 0 0 0-1.46.292l-6.107 6.12z"/></symbol></defs></svg>